<svg width="100" height="100" viewBox="0 0 100 100" fill="none" xmlns="http://www.w3.org/2000/svg">
<path d="M48.3833 28.2125C53.5833 22.2542 58.3146 17.525 56.0937 15.1292C53.8729 12.7333 17.9438 26.0729 19.9708 29.5562C21.1792 31.6312 53.2812 54.9271 56.4479 56.8021C60.1667 59.0021 66.1417 56.4271 65.6146 52.3354L60.7667 14.8125C60.7667 14.8125 63.2208 18.1083 63.9792 20.3854M73.0917 55.2229C72.5667 51.1333 68.2437 17.6979 68.2437 17.6979C68.2437 17.6979 70.6979 20.9937 71.4562 23.2729" stroke="#65D6FC" stroke-width="3" stroke-linecap="round" stroke-linejoin="round"/>
<path d="M59.1313 70.5625C59.1313 57.6083 54.7771 28.8729 54.7771 28.8729C54.7771 28.8729 57.2313 32.1667 57.9917 34.4458M45.9792 30.3063C45.2208 28.0271 42.7688 24.7313 42.7688 24.7313C42.7688 24.7313 44.0042 39.7479 51.1875 42.7271C31.925 33.3958 22.7563 63.9313 14.4333 54.9938C8.49375 48.6188 19.1625 39.6604 19.1625 39.6604" stroke="#65D6FC" stroke-width="3" stroke-linecap="round" stroke-linejoin="round"/>
<path d="M78.9917 29.2292C78.2313 26.9521 75.7792 23.6563 75.7792 23.6563C75.7792 23.6563 80 60.9375 80.9 70.5625C81.3271 75.1479 72.8292 77.25 69.675 69.5417C66.5208 61.8333 69.4125 59.6396 71.3396 59.6396C73.2667 59.6396 76.4229 66.0646 71.3396 69.0437C66.2563 72.0229 57.7875 74.1854 55.2187 77.1625C52.65 80.1396 48.15 86.975 45.1708 86.975C42.1917 86.975 36.3521 83.7646 43.0104 70.5625M86.3521 64.8958C85.825 58.0625 82.2625 30.375 82.2625 30.375C82.2625 30.375 84.7167 33.6688 85.475 35.9479M29.1521 18.6333C32.7438 16.3979 40.1479 14.9979 44.0021 11.975M18.7104 56.6521C13.9208 61.9167 15.2646 72.6042 20.875 70.8542C22.9688 70.2 25.4896 65.8458 29.6938 63.9625C36.75 60.8042 45.775 59.1917 45.2313 54.15C44.5313 47.6375 38.2813 43.8479 38.2813 43.8479" stroke="#65D6FC" stroke-width="3" stroke-linecap="round" stroke-linejoin="round"/>
<path d="M53.7875 60.4562C50.7937 59.1333 49.8146 57.6083 49.8146 57.6083C52.2396 63.025 54.1083 66.325 54.1687 68.925C54.2292 71.525 40.8208 79.8333 35.0646 79.8333C28.3646 79.8333 23.4604 75.0166 25.3646 67.0208M21.1146 30.6979C16.7104 32.7396 13.9792 42.4 17.3375 41.425" stroke="#65D6FC" stroke-width="3" stroke-linecap="round" stroke-linejoin="round"/>
</svg>
