<svg width="277" height="226" viewBox="0 0 277 226" fill="none" xmlns="http://www.w3.org/2000/svg">
<g filter="url(#filter0_d_301_1528)">
<path d="M101.612 78.5679C92.0814 85.5332 79.5262 93.6175 72.9854 103.144C67.8901 110.571 65.7886 119.676 65.9335 128.553C65.6704 128.655 65.411 128.756 65.1517 128.865C61.3378 130.493 57.9092 133 55.4721 136.234C54.1411 137.996 53.1342 139.984 52.4973 142.069H39C39.7475 150.466 41.4523 168.909 42.7643 183.018L46.9328 149.118H60.9488C61.1548 146.269 62.0014 143.541 63.9465 141.335C66.6124 138.305 70.2318 137.328 74.2058 137.026C75.1135 136.957 76.0403 136.946 76.9594 137.008C76.9289 135.798 76.8717 134.584 76.8526 133.374C76.7306 125.991 77.0319 119.157 80.6017 112.479C90.0486 94.8202 108.409 85.3915 122.325 71.5518C128.1 65.811 132.974 59.1219 135.724 51.6116C137.219 47.5276 138.035 43.2947 138.5 39C136.627 45.4384 132.92 51.459 128.363 56.6657C120.708 65.4113 111.044 71.6753 101.612 78.5679Z" fill="#65D6FC"/>
<path d="M224.503 142.069C223.866 139.984 222.859 138 221.528 136.234C219.091 133 215.662 130.493 211.848 128.865C211.593 128.756 211.333 128.651 211.066 128.553C211.211 119.676 209.11 110.571 204.015 103.144C197.478 93.6175 184.919 85.5332 175.388 78.5679C165.952 71.6717 156.292 65.4113 148.637 56.6657C144.08 51.459 140.373 45.4384 138.5 39C138.965 43.2947 139.781 47.5276 141.277 51.6116C144.026 59.1219 148.9 65.8074 154.675 71.5518C168.591 85.3878 186.951 94.8202 196.398 112.479C199.972 119.157 200.269 125.991 200.147 133.374C200.128 134.584 200.071 135.798 200.041 137.008C200.956 136.942 201.883 136.957 202.794 137.026C206.764 137.328 210.384 138.305 213.053 141.335C214.999 143.541 215.845 146.269 216.051 149.118H230.067L234.236 183.018C235.548 168.909 237.252 150.466 238 142.069H224.503Z" fill="#65D6FC"/>
<path d="M145.804 111.817L150.018 119.953L159.442 121.257L152.623 127.59L154.232 136.532L145.804 132.31L137.375 136.532L138.984 127.59L132.165 121.257L141.589 119.953L145.804 111.817Z" fill="#65D6FC"/>
<path d="M138.5 96.6805C140.548 96.6805 142.554 96.8513 144.507 97.1638C144.263 97.1602 144.023 97.1456 143.778 97.1456C126.685 97.1456 112.825 110.349 112.825 126.634C112.825 142.919 126.685 156.123 143.778 156.123C159.945 156.123 173.206 144.315 174.602 129.261C174.636 129.879 174.656 130.504 174.656 131.129C174.656 150.154 158.466 165.577 138.496 165.577C118.527 165.577 102.337 150.154 102.337 131.129C102.341 112.104 118.531 96.6805 138.5 96.6805Z" fill="#65D6FC"/>
<path d="M70.8076 187C76.2004 185.172 81.7344 183.737 87.3141 182.509C92.8976 181.292 98.5421 180.325 104.217 179.555C115.567 178.033 127.039 177.313 138.504 177.302C149.968 177.306 161.44 178.022 172.79 179.544C178.466 180.315 184.11 181.281 189.694 182.498C195.273 183.726 200.803 185.161 206.196 186.996C200.494 186.484 194.85 185.939 189.202 185.507C183.557 185.063 177.92 184.682 172.287 184.391C161.021 183.788 149.762 183.505 138.5 183.494C127.238 183.497 115.979 183.781 104.713 184.384C99.0798 184.675 93.4429 185.056 87.7984 185.503C82.1539 185.939 76.5056 186.484 70.8076 187Z" fill="#65D6FC"/>
</g>
<defs>
<filter id="filter0_d_301_1528" x="0" y="0" width="277" height="226" filterUnits="userSpaceOnUse" color-interpolation-filters="sRGB">
<feFlood flood-opacity="0" result="BackgroundImageFix"/>
<feColorMatrix in="SourceAlpha" type="matrix" values="0 0 0 0 0 0 0 0 0 0 0 0 0 0 0 0 0 0 127 0" result="hardAlpha"/>
<feOffset/>
<feGaussianBlur stdDeviation="19.5"/>
<feComposite in2="hardAlpha" operator="out"/>
<feColorMatrix type="matrix" values="0 0 0 0 0.396078 0 0 0 0 0.839216 0 0 0 0 0.988235 0 0 0 1 0"/>
<feBlend mode="normal" in2="BackgroundImageFix" result="effect1_dropShadow_301_1528"/>
<feBlend mode="normal" in="SourceGraphic" in2="effect1_dropShadow_301_1528" result="shape"/>
</filter>
</defs>
</svg>
