<svg width="342" height="251" viewBox="0 0 342 251" fill="none" xmlns="http://www.w3.org/2000/svg">
<path d="M82.7 46C82.7 46 82.5 48.6 80 48.9C82.5 49.2 82.7 51.8 82.7 51.8C82.7 51.8 82.9 49.2 85.4 48.9C82.9 48.7 82.7 46 82.7 46Z" fill="#FFD08A"/>
<path d="M216.7 87C216.7 87 216.5 89.6 214 89.9C216.5 90.2 216.7 92.8 216.7 92.8C216.7 92.8 216.9 90.2 219.4 89.9C216.9 89.7 216.7 87 216.7 87Z" fill="#FFD08A"/>
<path d="M118.7 77C118.7 77 118.5 79.6 116 79.9C118.5 80.2 118.7 82.8 118.7 82.8C118.7 82.8 118.9 80.2 121.4 79.9C118.9 79.7 118.7 77 118.7 77Z" fill="#FFD08A"/>
<path d="M338.7 146C338.7 146 338.5 148.6 336 148.9C338.5 149.2 338.7 151.8 338.7 151.8C338.7 151.8 338.9 149.2 341.4 148.9C338.8 148.7 338.7 146 338.7 146Z" fill="#FFD08A"/>
<path d="M222.3 205.6C222.3 205.6 222.1 208.2 219.6 208.5C222.1 208.8 222.3 211.4 222.3 211.4C222.3 211.4 222.5 208.8 225 208.5C222.4 208.3 222.3 205.6 222.3 205.6Z" fill="#FFD08A"/>
<path d="M178.1 116C178.1 116 177.6 123 171 123.6C177.6 124.3 178.1 131.2 178.1 131.2C178.1 131.2 178.6 124.2 185.2 123.6C178.6 123 178.1 116 178.1 116Z" fill="#FFD08A"/>
<path d="M54.1 104.7C54.1 104.7 53.6 111.7 47 112.3C53.6 113 54.1 119.9 54.1 119.9C54.1 119.9 54.6 112.9 61.2 112.3C54.6 111.7 54.1 104.7 54.1 104.7Z" fill="#FFD08A"/>
<path d="M171.2 46C171.2 46 170.8 51.1 166 51.6C170.8 52.1 171.2 57.2 171.2 57.2C171.2 57.2 171.6 52.1 176.4 51.6C171.6 51 171.2 46 171.2 46Z" fill="#FFD08A"/>
<path d="M97.6 141C97.6 141 97.3 145.5 93 146C97.3 146.4 97.6 151 97.6 151C97.6 151 97.9 146.5 102.2 146C98 145.5 97.6 141 97.6 141Z" fill="#FFD08A"/>
<path d="M138.5 240.9C138.5 240.9 138.2 245.4 133.9 245.9C138.2 246.3 138.5 250.9 138.5 250.9C138.5 250.9 138.8 246.4 143.1 245.9C138.8 245.4 138.5 240.9 138.5 240.9Z" fill="#FFD08A"/>
<g opacity="0.15" filter="url(#filter0_d_301_1013)">
<path d="M166.035 189C215.14 189 254.947 179.731 254.947 168.297C254.947 156.863 215.14 147.594 166.035 147.594C116.931 147.594 77.1241 156.863 77.1241 168.297C77.1241 179.731 116.931 189 166.035 189Z" fill="#042030"/>
</g>
<g filter="url(#filter1_d_301_1013)">
<path d="M235.667 68.3868L166.035 92.1985L96.3329 68.3868L63 116.858L166.035 152.117L269 116.858L235.667 68.3868Z" fill="#455EB5"/>
<path opacity="0.45" d="M75.1467 114.88L160.598 147.594L131.219 118.483C131.219 118.483 82.9856 106.825 75.1467 114.88Z" fill="#240F4F"/>
<path opacity="0.45" d="M256.924 114.88L171.473 147.594L200.851 118.483C200.781 118.483 249.014 106.825 256.924 114.88Z" fill="#240F4F"/>
<path d="M166.035 152.117L63 116.858V121.451L166.035 156.709L269 121.451V116.858L166.035 152.117Z" fill="#0D2168"/>
<g filter="url(#filter2_d_301_1013)">
<path d="M111.163 173.314L123.098 142.012L161.516 155.155L111.163 173.314Z" fill="#0B2062"/>
<path opacity="0.45" d="M114.482 164.27L161.516 155.155L123.098 142.012L114.482 164.27Z" fill="#0B2062"/>
<path d="M166.035 153.53L111.163 173.314L115.259 177.624L166.035 159.536L216.741 177.624L220.907 173.314L166.035 153.53Z" fill="#0D2168"/>
<path d="M220.907 173.314L208.902 142.012L170.484 155.155L220.907 173.314Z" fill="#0B2062"/>
<path opacity="0.45" d="M217.518 164.27L170.484 155.155L208.902 142.012L217.518 164.27Z" fill="#0B2062"/>
</g>
<path d="M166.035 159.536C168.102 159.536 169.778 157.859 169.778 155.791C169.778 153.722 168.102 152.046 166.035 152.046C163.968 152.046 162.292 153.722 162.292 155.791C162.292 157.859 163.968 159.536 166.035 159.536Z" fill="white" fill-opacity="0.5"/>
<path d="M232.701 68.3868L166.035 101.596L99.3696 68.3868C96.3329 72.4143 71.8982 113.184 71.8982 113.184C72.1807 113.184 72.3925 113.255 72.675 113.255C133.974 119.402 150.993 138.692 156.643 143.355C162.292 148.089 166.106 147.594 166.106 147.594C166.106 147.594 169.919 148.089 175.569 143.355C181.219 138.692 198.238 119.402 259.537 113.255C259.819 113.255 260.031 113.184 260.314 113.184C260.172 113.184 235.667 72.485 232.701 68.3868Z" fill="#F5B304"/>
<path d="M260.172 113.184C259.89 113.184 259.678 113.255 259.396 113.255C198.097 119.402 181.077 138.692 175.428 143.355C169.778 148.089 165.965 147.594 165.965 147.594C165.965 147.594 162.151 148.089 156.502 143.355C150.852 138.692 133.832 119.402 72.5338 113.255C72.2513 113.255 72.0394 113.184 71.7569 113.184C71.2626 113.961 71.7569 114.526 71.7569 114.526C133.691 120.532 150.146 139.893 155.795 144.627C161.445 149.29 165.894 148.937 165.894 148.937C165.894 148.937 170.343 149.29 175.993 144.627C181.642 139.963 198.097 120.603 260.031 114.526C260.172 114.526 260.667 113.961 260.172 113.184Z" fill="#0D2168"/>
<path d="M230.159 64.5006C196.049 56.3043 165.965 84.3555 165.965 84.3555C165.965 84.3555 135.88 56.3043 101.771 64.5006C101.771 64.5006 92.0957 79.3388 78.7484 104.564C78.7484 104.564 145.908 112.124 165.965 140.317C186.021 112.124 253.181 104.564 253.181 104.564C239.834 79.3388 230.159 64.5006 230.159 64.5006Z" fill="#C2F0FF"/>
<path d="M253.181 104.564C253.181 104.564 186.021 112.124 165.965 140.317C145.979 112.124 78.819 104.564 78.819 104.564C78.819 104.564 78.819 106.825 75.0761 111.276C75.0761 111.276 136.022 115.657 158.196 140.953C163.422 146.888 165.965 146.181 165.965 146.181C165.965 146.181 168.578 146.888 173.733 140.953C195.837 115.657 256.853 111.276 256.853 111.276C253.181 106.754 253.181 104.564 253.181 104.564Z" fill="#A7E9FF"/>
<path d="M226.345 67.4682C226.345 67.4682 200.851 60.9677 165.965 88.0297C131.149 61.0384 105.584 67.4682 105.584 67.4682L88.3528 100.96C140.753 104.564 165.965 131.06 165.965 131.06C165.965 131.06 191.176 104.564 243.577 100.96L226.345 67.4682ZM166.035 127.881C166.035 127.881 142.448 103.716 92.4488 98.9817L106.926 68.8814C106.926 68.8814 131.996 64.006 166.035 89.5842C200.074 64.006 225.145 68.8814 225.145 68.8814L239.622 98.9817C189.623 103.716 166.035 127.881 166.035 127.881Z" fill="#455EB5"/>
<path opacity="0.2" d="M172.462 113.25C181.878 106.302 211.303 90.9267 231.077 93.0464" stroke="#455EB5" stroke-width="3" stroke-linecap="round"/>
<path opacity="0.2" d="M172.462 93.753C180.819 87.2063 202.546 74.3792 222.602 75.4444" stroke="#455EB5" stroke-width="3" stroke-linecap="round"/>
<path opacity="0.2" d="M172.462 103.645C181.525 96.5948 205.088 82.781 226.84 83.9282" stroke="#455EB5" stroke-width="3" stroke-linecap="round"/>
<path opacity="0.2" d="M160.456 113.25C151.04 106.302 121.615 90.9267 101.841 93.0464" stroke="#455EB5" stroke-width="3" stroke-linecap="round"/>
<path opacity="0.2" d="M160.456 93.753C152.1 87.2063 130.372 74.3792 110.316 75.4444" stroke="#455EB5" stroke-width="3" stroke-linecap="round"/>
<path opacity="0.2" d="M160.456 103.645C151.393 96.5948 127.83 82.781 106.079 83.9282" stroke="#455EB5" stroke-width="3" stroke-linecap="round"/>
<path d="M166.035 84.3555C166.035 84.3555 166.742 81.8825 168.083 82.5891C168.083 82.5891 167.236 122.652 168.648 138.268C169.001 142.154 172.391 147.453 173.733 149.432H171.967L171.473 151.057C171.473 151.057 166.247 142.224 166.035 138.762C164.976 123.217 165.541 88.1004 166.035 84.3555Z" fill="#54DAF5"/>
</g>
<defs>
<filter id="filter0_d_301_1013" x="60.1241" y="134.594" width="211.822" height="75.4056" filterUnits="userSpaceOnUse" color-interpolation-filters="sRGB">
<feFlood flood-opacity="0" result="BackgroundImageFix"/>
<feColorMatrix in="SourceAlpha" type="matrix" values="0 0 0 0 0 0 0 0 0 0 0 0 0 0 0 0 0 0 127 0" result="hardAlpha"/>
<feOffset dy="4"/>
<feGaussianBlur stdDeviation="8.5"/>
<feComposite in2="hardAlpha" operator="out"/>
<feColorMatrix type="matrix" values="0 0 0 0 0 0 0 0 0 0 0 0 0 0 0 0 0 0 0.85 0"/>
<feBlend mode="normal" in2="BackgroundImageFix" result="effect1_dropShadow_301_1013"/>
<feBlend mode="normal" in="SourceGraphic" in2="effect1_dropShadow_301_1013" result="shape"/>
</filter>
<filter id="filter1_d_301_1013" x="0" y="0" width="332" height="240.624" filterUnits="userSpaceOnUse" color-interpolation-filters="sRGB">
<feFlood flood-opacity="0" result="BackgroundImageFix"/>
<feColorMatrix in="SourceAlpha" type="matrix" values="0 0 0 0 0 0 0 0 0 0 0 0 0 0 0 0 0 0 127 0" result="hardAlpha"/>
<feOffset/>
<feGaussianBlur stdDeviation="31.5"/>
<feComposite in2="hardAlpha" operator="out"/>
<feColorMatrix type="matrix" values="0 0 0 0 0.396078 0 0 0 0 0.839216 0 0 0 0 0.988235 0 0 0 1 0"/>
<feBlend mode="normal" in2="BackgroundImageFix" result="effect1_dropShadow_301_1013"/>
<feBlend mode="normal" in="SourceGraphic" in2="effect1_dropShadow_301_1013" result="shape"/>
</filter>
<filter id="filter2_d_301_1013" x="96.1632" y="131.012" width="139.744" height="65.6116" filterUnits="userSpaceOnUse" color-interpolation-filters="sRGB">
<feFlood flood-opacity="0" result="BackgroundImageFix"/>
<feColorMatrix in="SourceAlpha" type="matrix" values="0 0 0 0 0 0 0 0 0 0 0 0 0 0 0 0 0 0 127 0" result="hardAlpha"/>
<feOffset dy="4"/>
<feGaussianBlur stdDeviation="7.5"/>
<feComposite in2="hardAlpha" operator="out"/>
<feColorMatrix type="matrix" values="0 0 0 0 0 0 0 0 0 0 0 0 0 0 0 0 0 0 0.49 0"/>
<feBlend mode="normal" in2="BackgroundImageFix" result="effect1_dropShadow_301_1013"/>
<feBlend mode="normal" in="SourceGraphic" in2="effect1_dropShadow_301_1013" result="shape"/>
</filter>
</defs>
</svg>
