<svg width="35" height="35" viewBox="0 0 35 35" fill="none" xmlns="http://www.w3.org/2000/svg">
<path d="M2.91666 8.74271C2.91666 7.94062 3.56707 7.29166 4.3677 7.29166H16.0489C16.4338 7.29166 16.8029 7.44454 17.075 7.71666C17.3471 7.98879 17.5 8.35787 17.5 8.74271C17.5 9.12755 17.3471 9.49662 17.075 9.76875C16.8029 10.0409 16.4338 10.1937 16.0489 10.1937H4.3677C3.98286 10.1937 3.61378 10.0409 3.34166 9.76875C3.06953 9.49662 2.91666 9.12755 2.91666 8.74271ZM2.91666 17.5C2.91666 16.6979 3.56707 16.049 4.3677 16.049H30.6323C31.0171 16.049 31.3862 16.2018 31.6583 16.474C31.9304 16.7461 32.0833 17.1152 32.0833 17.5C32.0833 17.8848 31.9304 18.2539 31.6583 18.526C31.3862 18.7982 31.0171 18.951 30.6323 18.951H4.3677C3.98286 18.951 3.61378 18.7982 3.34166 18.526C3.06953 18.2539 2.91666 17.8848 2.91666 17.5ZM4.3677 24.8062C3.98286 24.8062 3.61378 24.9591 3.34166 25.2312C3.06953 25.5034 2.91666 25.8724 2.91666 26.2573C2.91666 26.6421 3.06953 27.0112 3.34166 27.2833C3.61378 27.5555 3.98286 27.7083 4.3677 27.7083H21.8823C22.2671 27.7083 22.6362 27.5555 22.9083 27.2833C23.1804 27.0112 23.3333 26.6421 23.3333 26.2573C23.3333 25.8724 23.1804 25.5034 22.9083 25.2312C22.6362 24.9591 22.2671 24.8062 21.8823 24.8062H4.3677Z" fill="#65D6FC"/>
</svg>
