<svg width="301" height="339" viewBox="0 0 301 339" fill="none" xmlns="http://www.w3.org/2000/svg">
<g filter="url(#filter0_d_525_104)">
<path d="M225.873 218.677L210.912 213.804L150.154 242.39L89.3922 213.804L74.4356 218.677L150.154 250.348L225.873 218.677Z" fill="#65D6FC"/>
<path d="M236.305 217.621L150.154 253.68L64 217.621V221.032L133.612 251.839L79.0193 274.997H99.1037L142.588 255.814L150.154 259.161L157.717 255.814L201.201 274.997H221.289L166.692 251.839L236.305 221.032V217.621Z" fill="#65D6FC"/>
<path d="M205.726 213.804C177.68 215.224 150.154 236.135 150.154 236.135C150.154 236.135 122.629 215.224 94.5826 213.804L150.154 240.155L205.726 213.804Z" fill="#65D6FC"/>
<path d="M155.998 97.602C145.633 97.602 137.229 89.5359 137.229 79.5875C137.229 72.9302 140.995 67.1183 146.592 64C136.998 65.886 129.78 74.0348 129.78 83.8028C129.78 94.9684 139.21 104.019 150.843 104.019C159.838 104.019 167.51 98.6051 170.532 90.9898C167.088 95.0248 161.858 97.602 155.998 97.602Z" fill="#65D6FC"/>
<g filter="url(#filter1_d_525_104)">
<path d="M156.574 69.5452L159.412 75.0679L165.761 75.9508L161.165 80.2487L162.25 86.3162L156.574 83.4534L150.894 86.3162L151.978 80.2487L147.387 75.9508L153.736 75.0679L156.574 69.5452Z" fill="#65D6FC"/>
</g>
<path d="M203.71 150.725C197.796 145.086 190.499 141.01 183.34 136.911C170.959 129.818 157.576 121.147 151.657 107.997C151.074 106.701 150.577 105.371 150.154 104.019C149.732 105.371 149.234 106.701 148.651 107.997C142.733 121.147 129.35 129.818 116.969 136.911C109.809 141.01 102.513 145.09 96.5985 150.725C86.8479 160.012 83.4229 173.154 87.7051 185.766C89.2748 190.391 91.78 194.662 94.9506 198.453C96.4223 200.215 98.039 201.872 99.7769 203.409H99.6791V211.103H116.01C108.463 209.123 109.375 203.412 109.375 203.409C109.019 203.138 108.651 202.886 108.298 202.608C106.643 201.293 105.085 199.903 103.644 198.449C93.5923 188.321 89.1926 175.04 97.6788 161.782C105.453 149.639 118.981 142.896 130.888 135.153C137.491 130.862 143.876 125.888 148.33 119.614C148.557 130.926 154.264 142.79 162.809 149.936C169.358 155.406 177.343 158.889 185.054 162.552C196.519 168.003 208.803 176.907 202.544 190.582C201.256 193.396 199.471 196.004 197.396 198.446C196.179 199.877 194.86 201.252 193.486 202.574C192.339 202.496 191.192 202.42 190.045 202.372C187.677 202.278 185.309 202.315 182.941 202.304C178.204 202.3 173.468 202.402 168.736 202.473L154.53 202.792L147.426 203.007L143.876 203.112L142.099 203.164C141.508 203.179 140.916 203.209 140.321 203.401C140.913 203.593 141.504 203.623 142.099 203.638L143.876 203.69L147.426 203.795L154.53 204.01L168.736 204.329C173.472 204.4 178.208 204.502 182.941 204.498C185.309 204.487 187.677 204.524 190.045 204.43C190.914 204.393 191.779 204.336 192.648 204.28C192.562 205.959 191.697 209.592 185.986 211.091H200.645V203.397H200.363C202.074 201.827 203.694 200.181 205.182 198.442C208.384 194.7 210.995 190.526 212.615 185.755C216.886 173.158 213.461 160.016 203.71 150.725Z" fill="#65D6FC"/>
</g>
<path d="M148.383 168.212C153.583 162.254 158.315 157.525 156.094 155.129C153.873 152.733 117.944 166.073 119.971 169.556C121.179 171.631 153.281 194.927 156.448 196.802C160.167 199.002 166.142 196.427 165.615 192.335L160.767 154.812C160.767 154.812 163.221 158.108 163.979 160.385M173.092 195.223C172.567 191.133 168.244 157.698 168.244 157.698C168.244 157.698 170.698 160.994 171.456 163.273" stroke="#65D6FC" stroke-width="3" stroke-linecap="round" stroke-linejoin="round"/>
<path d="M159.131 210.563C159.131 197.608 154.777 168.873 154.777 168.873C154.777 168.873 157.231 172.167 157.992 174.446M145.979 170.306C145.221 168.027 142.769 164.731 142.769 164.731C142.769 164.731 144.004 179.748 151.188 182.727C131.925 173.396 122.756 203.931 114.433 194.994C108.494 188.619 119.163 179.66 119.163 179.66" stroke="#65D6FC" stroke-width="3" stroke-linecap="round" stroke-linejoin="round"/>
<path d="M178.992 169.229C178.231 166.952 175.779 163.656 175.779 163.656C175.779 163.656 180 200.937 180.9 210.562C181.327 215.148 172.829 217.25 169.675 209.542C166.521 201.833 169.412 199.64 171.34 199.64C173.267 199.64 176.423 206.065 171.34 209.044C166.256 212.023 157.787 214.185 155.219 217.162C152.65 220.14 148.15 226.975 145.171 226.975C142.192 226.975 136.352 223.765 143.01 210.562M186.352 204.896C185.825 198.063 182.262 170.375 182.262 170.375C182.262 170.375 184.717 173.669 185.475 175.948M129.152 158.633C132.744 156.398 140.148 154.998 144.002 151.975M118.71 196.652C113.921 201.917 115.265 212.604 120.875 210.854C122.969 210.2 125.49 205.846 129.694 203.963C136.75 200.804 145.775 199.192 145.231 194.15C144.531 187.638 138.281 183.848 138.281 183.848" stroke="#65D6FC" stroke-width="3" stroke-linecap="round" stroke-linejoin="round"/>
<path d="M153.788 200.456C150.794 199.133 149.815 197.608 149.815 197.608C152.24 203.025 154.108 206.325 154.169 208.925C154.229 211.525 140.821 219.833 135.065 219.833C128.365 219.833 123.46 215.017 125.365 207.021M121.115 170.698C116.71 172.74 113.979 182.4 117.338 181.425" stroke="#65D6FC" stroke-width="3" stroke-linecap="round" stroke-linejoin="round"/>
<defs>
<filter id="filter0_d_525_104" x="0" y="0" width="300.305" height="338.997" filterUnits="userSpaceOnUse" color-interpolation-filters="sRGB">
<feFlood flood-opacity="0" result="BackgroundImageFix"/>
<feColorMatrix in="SourceAlpha" type="matrix" values="0 0 0 0 0 0 0 0 0 0 0 0 0 0 0 0 0 0 127 0" result="hardAlpha"/>
<feOffset/>
<feGaussianBlur stdDeviation="32"/>
<feComposite in2="hardAlpha" operator="out"/>
<feColorMatrix type="matrix" values="0 0 0 0 0.396078 0 0 0 0 0.839216 0 0 0 0 0.988235 0 0 0 1 0"/>
<feBlend mode="normal" in2="BackgroundImageFix" result="effect1_dropShadow_525_104"/>
<feBlend mode="normal" in="SourceGraphic" in2="effect1_dropShadow_525_104" result="shape"/>
</filter>
<filter id="filter1_d_525_104" x="139.387" y="61.5452" width="34.3738" height="32.7709" filterUnits="userSpaceOnUse" color-interpolation-filters="sRGB">
<feFlood flood-opacity="0" result="BackgroundImageFix"/>
<feColorMatrix in="SourceAlpha" type="matrix" values="0 0 0 0 0 0 0 0 0 0 0 0 0 0 0 0 0 0 127 0" result="hardAlpha"/>
<feOffset/>
<feGaussianBlur stdDeviation="4"/>
<feComposite in2="hardAlpha" operator="out"/>
<feColorMatrix type="matrix" values="0 0 0 0 0.396078 0 0 0 0 0.839216 0 0 0 0 0.988235 0 0 0 1 0"/>
<feBlend mode="normal" in2="BackgroundImageFix" result="effect1_dropShadow_525_104"/>
<feBlend mode="normal" in="SourceGraphic" in2="effect1_dropShadow_525_104" result="shape"/>
</filter>
</defs>
</svg>
