<svg width="136" height="103" viewBox="0 0 136 103" fill="none" xmlns="http://www.w3.org/2000/svg">
<g style="mix-blend-mode:soft-light">
<path opacity="0.25" d="M67.8948 102.362C100.252 102.362 126.483 94.8322 126.483 85.5434C126.483 76.2545 100.252 68.7244 67.8948 68.7244C35.5377 68.7244 9.30704 76.2545 9.30704 85.5434C9.30704 94.8322 35.5377 102.362 67.8948 102.362Z" fill="#042030"/>
<path d="M113.779 4.37625L67.8948 23.7209L21.9646 4.37625L0 43.7544L67.8948 72.3982L135.743 43.7544L113.779 4.37625Z" fill="#4E2999"/>
<path opacity="0.45" d="M8.00406 42.1471L64.3116 68.7244L44.953 45.0746C44.953 45.0746 13.1695 35.6032 8.00406 42.1471Z" fill="#240F4F"/>
<path opacity="0.45" d="M127.786 42.1471L71.4781 68.7244L90.8367 45.0746C90.7902 45.0746 122.574 35.6032 127.786 42.1471Z" fill="#240F4F"/>
<path d="M67.8948 72.3982L0 43.7544L0 47.4855L67.8948 76.1294L135.743 47.4855V43.7544L67.8948 72.3982Z" fill="#65D6FC"/>
<path d="M31.737 89.6189L39.6014 64.1896L64.9166 74.8665L31.737 89.6189Z" fill="#455EB5"/>
<path opacity="0.45" d="M33.9242 82.2714L64.9166 74.8665L39.6015 64.1896L33.9242 82.2714Z" fill="#455EB5"/>
<path d="M67.8948 73.5462L31.737 89.6189L34.436 93.1205L67.8948 78.4254L101.307 93.1205L104.053 89.6189L67.8948 73.5462Z" fill="#65D6FC"/>
<path d="M104.053 89.6189L96.1417 64.1896L70.8266 74.8665L104.053 89.6189Z" fill="#455EB5"/>
<path opacity="0.45" d="M101.819 82.2714L70.8266 74.8665L96.1417 64.1896L101.819 82.2714Z" fill="#455EB5"/>
<path d="M67.8948 78.4254C69.2569 78.4254 70.3611 77.0633 70.3611 75.3831C70.3611 73.7029 69.2569 72.3408 67.8948 72.3408C66.5327 72.3408 65.4284 73.7029 65.4284 75.3831C65.4284 77.0633 66.5327 78.4254 67.8948 78.4254Z" fill="white" fill-opacity="0.5"/>
<path d="M111.824 4.37625L67.8948 31.3554L23.9656 4.37625C21.9646 7.64819 5.86343 40.7694 5.86343 40.7694C6.04957 40.7694 6.18918 40.8268 6.37532 40.8268C46.7679 45.8209 57.9828 61.4917 61.7057 65.2803C65.4285 69.1263 67.9414 68.7244 67.9414 68.7244C67.9414 68.7244 70.4543 69.1263 74.1771 65.2803C77.8999 61.4917 89.1149 45.8209 129.507 40.8268C129.694 40.8268 129.833 40.7694 130.019 40.7694C129.926 40.7694 113.779 7.7056 111.824 4.37625Z" fill="#F5B304"/>
<path d="M129.926 40.7694C129.74 40.7694 129.6 40.8268 129.414 40.8268C89.0218 45.8208 77.8068 61.4917 74.084 65.2803C70.3612 69.1262 67.8483 68.7244 67.8483 68.7244C67.8483 68.7244 65.3354 69.1262 61.6126 65.2803C57.8898 61.4917 46.6748 45.8208 6.28224 40.8268C6.0961 40.8268 5.9565 40.7694 5.77036 40.7694C5.44461 41.4008 5.77036 41.8601 5.77036 41.8601C46.5817 46.7393 57.4244 62.4675 61.1472 66.3135C64.87 70.1021 67.8017 69.8151 67.8017 69.8151C67.8017 69.8151 70.7335 70.1021 74.4563 66.3135C78.1791 62.5249 89.0218 46.7967 129.833 41.8601C129.926 41.8601 130.252 41.4008 129.926 40.7694Z" fill="#65D6FC"/>
<path d="M110.149 1.2191C87.6723 -5.43959 67.8483 17.3492 67.8483 17.3492C67.8483 17.3492 48.0243 -5.43959 25.5478 1.2191C25.5478 1.2191 19.1725 13.2736 10.3773 33.7663C10.3773 33.7663 54.6323 39.9084 67.8483 62.812C81.0643 39.9084 125.319 33.7663 125.319 33.7663C116.524 13.2736 110.149 1.2191 110.149 1.2191Z" fill="#D7F3FC"/>
<path d="M125.319 33.7663C125.319 33.7663 81.0643 39.9084 67.8483 62.812C54.6788 39.9084 10.4239 33.7663 10.4239 33.7663C10.4239 33.7663 10.4239 35.6032 7.95749 39.2195C7.95749 39.2195 48.1174 42.7785 62.7294 63.3286C66.173 68.1504 67.8483 67.5764 67.8483 67.5764C67.8483 67.5764 69.5701 68.1504 72.9671 63.3286C87.5327 42.7785 127.739 39.2195 127.739 39.2195C125.319 35.5458 125.319 33.7663 125.319 33.7663Z" fill="#A8D3E1"/>
<path d="M107.636 3.63C107.636 3.63 90.8367 -1.65104 67.8483 20.3341C44.9064 -1.59363 28.0607 3.63 28.0607 3.63L16.7061 30.8388C51.2352 33.7663 67.8483 55.2922 67.8483 55.2922C67.8483 55.2922 84.4613 33.7663 118.99 30.8388L107.636 3.63ZM67.8948 52.7091C67.8948 52.7091 52.3521 33.0775 19.4052 29.2315L28.9449 4.77805C28.9449 4.77805 45.4649 0.817278 67.8948 21.597C90.3248 0.817278 106.845 4.77805 106.845 4.77805L116.384 29.2315C83.4376 33.0775 67.8948 52.7091 67.8948 52.7091Z" fill="#65D6FC"/>
<path opacity="0.2" d="M72.1295 40.8233C78.3342 35.1787 97.7239 22.6876 110.754 24.4097" stroke="#65D6FC" stroke-width="3" stroke-linecap="round"/>
<path opacity="0.2" d="M72.1295 24.9837C77.6362 19.6652 91.9535 9.24442 105.169 10.1098" stroke="#65D6FC" stroke-width="3" stroke-linecap="round"/>
<path opacity="0.2" d="M72.1295 33.0201C78.1015 27.2924 93.6288 16.0701 107.962 17.002" stroke="#65D6FC" stroke-width="3" stroke-linecap="round"/>
<path opacity="0.2" d="M64.2185 40.8233C58.0138 35.1787 38.6242 22.6876 25.5943 24.4097" stroke="#65D6FC" stroke-width="3" stroke-linecap="round"/>
<path opacity="0.2" d="M64.2185 24.9837C58.7119 19.6652 44.3946 9.24442 31.1786 10.1098" stroke="#65D6FC" stroke-width="3" stroke-linecap="round"/>
<path opacity="0.2" d="M64.2185 33.0201C58.2465 27.2924 42.7193 16.0701 28.3865 17.002" stroke="#65D6FC" stroke-width="3" stroke-linecap="round"/>
<path d="M67.8948 17.3492C67.8948 17.3492 68.3602 15.3401 69.2444 15.9141C69.2444 15.9141 68.6859 48.4613 69.6166 61.1473C69.8493 64.3044 72.083 68.6096 72.9672 70.2169H71.8038L71.478 71.5371C71.478 71.5371 68.0344 64.3618 67.8948 61.5491C67.1968 48.9206 67.5691 20.3915 67.8948 17.3492Z" fill="#54DAF5"/>
</g>
</svg>
