<svg width="309" height="102" viewBox="0 0 309 102" fill="none" xmlns="http://www.w3.org/2000/svg">
<path fill-rule="evenodd" clip-rule="evenodd" d="M307.374 101.05C307.513 100.541 307.606 100.01 307.606 99.4493C307.606 97.1095 306.306 95.1363 304.497 94.3819C304.497 94.3555 304.503 94.3296 304.503 94.3025C304.503 93.5055 304.06 92.8318 303.442 92.5736L303.217 91.7836C303.259 91.7129 303.288 91.6311 303.288 91.5378C303.288 91.3566 303.192 91.2038 303.059 91.1324L302.918 88.6453C302.918 88.6339 302.907 88.6256 302.899 88.6256C302.887 88.6256 302.876 88.6335 302.876 88.6453L302.735 91.1324C302.601 91.2038 302.504 91.3563 302.504 91.5378C302.504 91.6311 302.535 91.7136 302.579 91.7856L302.353 92.5736C301.734 92.8318 301.29 93.5038 301.29 94.3025C301.29 94.3296 301.295 94.3555 301.297 94.3819C299.887 94.9696 298.798 96.3003 298.38 97.9616V91.683H298.464C298.67 91.683 298.835 91.4931 298.835 91.2561V91.0139C298.835 90.78 298.67 90.5876 298.464 90.5876H297.96C297.983 90.4289 297.997 90.2723 297.997 90.1035C297.997 88.9624 297.469 87.9592 296.679 87.4006C296.195 87.0551 295.775 86.6025 295.442 86.0747C295.504 86.0075 295.543 85.9115 295.543 85.8068C295.543 85.6582 295.465 85.5272 295.351 85.4721L295.271 84.0281H295.177L295.096 85.4721C294.982 85.5272 294.905 85.6582 294.905 85.8068C294.905 85.9118 294.941 86.0075 295.004 86.0747C294.675 86.6046 294.256 87.0544 293.766 87.4006C292.977 87.9588 292.45 88.9624 292.45 90.1035C292.45 90.2723 292.464 90.4289 292.484 90.5876H291.997C291.791 90.5876 291.624 90.7803 291.624 91.0139V91.2561C291.624 91.4935 291.792 91.683 291.997 91.683H292.069V97.6698H290.86C291.173 96.9958 291.343 96.275 291.343 95.5303C291.343 92.9302 289.28 90.6538 286.188 89.3827C284.175 88.5524 282.46 87.4352 281.125 86.1371C281.177 86.0227 281.211 85.8997 281.211 85.7618C281.211 85.4225 281.033 85.1311 280.776 85.0022L280.593 81.7222H280.379L280.196 85.0022C279.939 85.1311 279.758 85.4225 279.758 85.7618C279.758 85.8997 279.795 86.0227 279.846 86.1371C278.623 87.3323 277.094 88.3549 275.287 89.162C275.241 88.7358 275.145 88.2905 274.973 87.8438C274.703 87.1181 274.156 86.4576 273.533 85.8599C272.93 85.2846 272.252 84.7932 271.704 84.4311C271.723 84.3458 271.76 84.218 271.76 84.0904C271.76 83.9196 271.742 83.7272 271.678 83.536C271.603 83.3436 271.445 83.1517 271.268 83.0027C271.111 82.8526 270.934 82.7251 270.804 82.6395L270.794 82.32C270.832 82.2777 270.851 82.2559 270.869 82.1918C270.907 82.1498 270.915 82.0847 270.915 82.0216C270.915 81.9575 270.896 81.893 270.869 81.8286C270.842 81.7867 270.813 81.7437 270.767 81.7222L270.758 81.4235C270.776 81.4027 270.804 81.3601 270.814 81.3382C270.842 81.2953 270.851 81.2533 270.851 81.1889C270.851 81.1463 270.832 81.0818 270.814 81.0406C270.794 80.9969 270.767 80.9761 270.74 80.9539L270.721 80.6344L270.628 78.3313C270.628 78.2894 270.61 78.2672 270.592 78.2672C270.563 78.2891 270.544 78.3102 270.544 78.3313L270.452 80.6344L270.443 80.9539C270.405 80.9761 270.387 80.9969 270.369 81.0406C270.341 81.0818 270.33 81.1463 270.33 81.1889C270.33 81.2533 270.33 81.2953 270.358 81.3382C270.369 81.3601 270.396 81.403 270.424 81.4235L270.405 81.7222C270.369 81.7437 270.331 81.7867 270.313 81.8286C270.275 81.893 270.256 81.9575 270.256 82.0216C270.256 82.085 270.275 82.1498 270.303 82.1918C270.322 82.2562 270.35 82.2777 270.387 82.32L270.369 82.6395C270.238 82.7251 270.071 82.8526 269.904 83.0027C269.736 83.1517 269.579 83.3436 269.495 83.536C269.43 83.7272 269.412 83.9192 269.421 84.0904C269.421 84.218 269.449 84.3458 269.477 84.4311C268.92 84.7932 268.251 85.2846 267.648 85.8599C267.337 86.1589 267.043 86.4732 266.792 86.8028C264.995 81.7437 260.793 78.1182 255.811 77.7977V77.281C255.811 77.0942 255.678 76.9417 255.516 76.9417H255.286L255.097 71.5042C255.622 71.71 256.193 71.788 256.777 71.6699C257.72 71.4796 258.503 70.8662 259.008 70.0276C258.645 70.2851 258.237 70.4694 257.792 70.5588C255.934 70.9328 254.156 69.5029 253.832 67.3669C253.671 66.3089 253.892 65.2783 254.382 64.4615C253.234 65.2835 252.57 66.8506 252.818 68.4786C253.028 69.8502 253.837 70.922 254.881 71.4217L254.696 76.9421H254.461C254.385 76.9421 254.312 76.9764 254.258 77.0381C254.203 77.1001 254.174 77.1846 254.174 77.2709V77.8095C249.555 78.1927 245.627 81.4183 243.709 85.9759L243.669 79.1114H243.833C244.101 79.1114 244.322 78.8567 244.322 78.5545C244.322 78.2506 244.101 78.0004 243.833 78.0004H243.669L243.631 70.2854H243.833C244.07 70.2854 244.268 70.0657 244.268 69.7947C244.268 69.5626 244.128 69.3664 243.942 69.3124V67.0027H244.112C244.237 67.0027 244.337 66.8859 244.337 66.7445C244.337 66.6063 244.237 66.4936 244.112 66.4936H243.902C244.027 66.0795 244.175 65.2859 243.868 64.4782C243.724 64.1036 243.429 63.7473 243.103 63.4344C242.78 63.1315 242.423 62.8727 242.132 62.6852C242.147 62.6322 242.163 62.5694 242.163 62.4932C242.167 62.3996 242.159 62.3009 242.116 62.2042C242.081 62.0964 241.996 61.9984 241.903 61.9183C241.821 61.8424 241.728 61.78 241.658 61.7357L241.65 61.5614C241.666 61.5437 241.685 61.5212 241.693 61.4986C241.709 61.4678 241.717 61.4373 241.717 61.4058C241.717 61.369 241.709 61.3295 241.689 61.3029C241.682 61.2758 241.658 61.2578 241.639 61.2401L241.635 61.0887C241.642 61.0745 241.658 61.0572 241.666 61.0343C241.677 61.0173 241.682 60.9899 241.682 60.9636C241.682 60.9369 241.677 60.9057 241.663 60.8839C241.654 60.8655 241.639 60.8478 241.62 60.8295L241.615 60.6687L241.569 59.4475C241.565 59.4298 241.558 59.4212 241.542 59.4212C241.526 59.4212 241.518 59.434 241.518 59.4475L241.472 60.6687L241.465 60.8295C241.449 60.8482 241.433 60.8655 241.426 60.8839C241.41 60.9057 241.402 60.9369 241.402 60.9636C241.402 60.9899 241.41 61.0173 241.421 61.0343C241.429 61.0572 241.441 61.0745 241.457 61.0887L241.449 61.2401C241.426 61.2578 241.41 61.2758 241.394 61.3029C241.379 61.3295 241.371 61.3687 241.371 61.4058C241.371 61.4373 241.379 61.4678 241.394 61.4986C241.402 61.5208 241.417 61.5437 241.433 61.5614L241.429 61.7357C241.363 61.78 241.27 61.8428 241.185 61.9183C241.091 61.9984 241.006 62.0968 240.967 62.2042C240.928 62.3009 240.921 62.3996 240.924 62.4932C240.928 62.5694 240.94 62.6318 240.951 62.6852C240.664 62.8727 240.306 63.1315 239.988 63.4344C239.654 63.747 239.367 64.1036 239.219 64.4782C238.908 65.2859 239.064 66.0795 239.185 66.4936H238.932C238.815 66.4936 238.715 66.6059 238.715 66.7445C238.715 66.8859 238.815 67.0027 238.932 67.0027H239.118V69.3124C238.928 69.3623 238.785 69.5584 238.785 69.7947C238.785 70.0657 238.979 70.2854 239.212 70.2854H239.421L239.382 78.0004H239.212C238.947 78.0004 238.73 78.2506 238.73 78.5545C238.73 78.8567 238.947 79.1114 239.212 79.1114H239.374L239.353 83.5945C237.687 79.5626 232.718 79.9951 231.248 82.9146V81.9991H231.317C231.496 81.9991 231.632 81.8411 231.632 81.6515C231.632 81.4308 231.496 81.2727 231.317 81.2727H231.14C231.468 80.4525 232.251 77.8011 231.22 75.1182C230.822 74.0447 230.012 73.0664 229.09 72.1834C228.196 71.3299 227.194 70.6053 226.384 70.0682C226.411 69.942 226.466 69.7521 226.466 69.5639C226.466 69.3106 226.438 69.0272 226.343 68.7434C226.232 68.4592 225.998 68.175 225.737 67.9546C225.504 67.7335 225.243 67.5436 225.05 67.4175L225.036 66.9452C225.093 66.8814 225.119 66.8499 225.147 66.7549C225.202 66.6915 225.215 66.5969 225.215 66.5026C225.215 66.4073 225.188 66.3127 225.147 66.2181C225.106 66.1554 225.064 66.0916 224.996 66.0601L224.982 65.6183C225.008 65.5867 225.05 65.5244 225.064 65.4921C225.106 65.4287 225.119 65.3663 225.119 65.2714C225.119 65.2087 225.092 65.1127 225.064 65.0507C225.036 64.9872 224.995 64.956 224.955 64.9245L224.927 64.4515L224.789 61.0426C224.789 60.9792 224.762 60.9473 224.735 60.9473C224.693 60.9795 224.665 61.0111 224.665 61.0426L224.528 64.4515L224.514 64.9245C224.458 64.956 224.433 64.9876 224.405 65.0507C224.363 65.1127 224.349 65.2087 224.349 65.2714C224.349 65.366 224.349 65.4287 224.39 65.4921C224.405 65.5244 224.446 65.5867 224.487 65.6183L224.458 66.0601C224.405 66.0916 224.349 66.1554 224.322 66.2181C224.267 66.3127 224.239 66.4073 224.239 66.5026C224.239 66.5966 224.267 66.6915 224.308 66.7549C224.336 66.8495 224.377 66.8814 224.433 66.9452L224.405 67.4175C224.212 67.5436 223.965 67.7335 223.718 67.9546C223.471 68.1754 223.237 68.4592 223.113 68.7434C223.016 69.0272 222.99 69.3106 223.002 69.5639C223.002 69.7521 223.045 69.942 223.086 70.0682C222.261 70.6056 221.271 71.3303 220.379 72.1834C219.458 73.0664 218.633 74.0447 218.234 75.1182C217.204 77.8011 218.001 80.4525 218.316 81.2727H218.152C217.973 81.2727 217.835 81.4308 217.835 81.6515C217.835 81.8411 217.973 81.9991 218.152 81.9991H218.303V82.9146H216.82L216.792 66.6596H217.231C217.521 66.6596 217.753 66.3758 217.753 66.0605C217.753 65.7143 217.521 65.4613 217.231 65.4613H216.792L216.751 56.4662H216.902C217.149 56.4662 217.369 56.2448 217.369 55.9606C217.369 55.6453 217.149 55.4245 216.902 55.4245H216.736L216.71 48.1338H216.902C217.122 48.1338 217.314 47.913 217.314 47.6604C217.314 47.4393 217.176 47.2497 216.997 47.2189V45.0094H217.163C217.286 45.0094 217.369 44.9144 217.369 44.788C217.369 44.6615 217.286 44.5357 217.163 44.5357H216.971C217.08 44.1566 217.231 43.3997 216.93 42.6425C216.792 42.2949 216.517 41.9474 216.215 41.6639C215.912 41.3486 215.568 41.1271 215.294 40.9379C215.308 40.9064 215.321 40.8433 215.321 40.748C215.321 40.6849 215.307 40.5914 215.279 40.4954C215.238 40.3693 215.17 40.275 215.074 40.2116C214.992 40.1488 214.908 40.0861 214.839 40.0539V39.8647C214.854 39.8647 214.868 39.8335 214.868 39.8013C214.895 39.8013 214.895 39.7697 214.895 39.7378C214.895 39.7067 214.895 39.6744 214.868 39.6436C214.868 39.6121 214.839 39.5805 214.813 39.5805V39.4228C214.839 39.4228 214.839 39.3917 214.854 39.3917C214.868 39.3594 214.868 39.3279 214.868 39.296C214.868 39.296 214.868 39.2648 214.839 39.2326C214.839 39.2018 214.826 39.2018 214.813 39.2018L214.799 39.0437L214.757 37.8759C214.757 37.8759 214.744 37.8444 214.729 37.8444C214.716 37.8444 214.702 37.8759 214.702 37.8759L214.661 39.0437V39.2018C214.647 39.2018 214.62 39.2018 214.62 39.2326C214.606 39.2648 214.593 39.296 214.593 39.296C214.593 39.3279 214.606 39.3594 214.62 39.3917C214.62 39.3917 214.633 39.4228 214.647 39.4228V39.5805C214.62 39.5805 214.606 39.6121 214.593 39.6436C214.578 39.6748 214.565 39.707 214.565 39.7378C214.565 39.7697 214.578 39.8013 214.593 39.8013C214.593 39.8335 214.62 39.8647 214.633 39.8647L214.62 40.0539C214.565 40.0861 214.482 40.1488 214.4 40.2116C214.303 40.2753 214.235 40.3693 214.18 40.4954C214.152 40.591 214.152 40.6849 214.152 40.748C214.152 40.843 214.166 40.9064 214.18 40.9379C213.905 41.1271 213.561 41.3486 213.258 41.6639C212.943 41.9474 212.667 42.2949 212.53 42.6425C212.243 43.3997 212.394 44.1566 212.504 44.5357H212.27C212.145 44.5357 212.064 44.6615 212.064 44.788C212.064 44.9144 212.145 45.0094 212.27 45.0094H212.435V45.6085C212.435 45.6408 212.435 45.672 212.42 45.7035L212.435 45.7662V47.2189C212.257 47.2497 212.119 47.4393 212.119 47.6604C212.119 47.913 212.311 48.1338 212.53 48.1338H212.724L212.696 55.4245H212.53C212.284 55.4245 212.064 55.6453 212.064 55.9606C212.064 56.2448 212.284 56.4662 212.53 56.4662H212.681L212.64 65.4613H212.2C211.914 65.4613 211.678 65.7143 211.678 66.0605C211.678 66.3758 211.914 66.6596 212.2 66.6596H212.628L212.613 76.0341H211.829V72.278H210.042V71.3632H210.112C210.277 71.3632 210.428 71.2045 210.428 71.0149C210.428 70.7949 210.277 70.6368 210.112 70.6368H209.947C210.262 69.8162 211.045 67.1642 210.029 64.4816C209.618 63.4088 208.807 62.4305 207.886 61.5472C206.992 60.695 205.99 59.968 205.179 59.4319C205.22 59.3051 205.247 59.1166 205.274 58.8951C205.274 58.6744 205.247 58.3909 205.136 58.1064C205.027 57.8222 204.794 57.5381 204.532 57.3177C204.299 57.0962 204.038 56.9067 203.846 56.7809L203.832 56.3082C203.886 56.2441 203.928 56.2136 203.956 56.118C203.983 56.0552 204.011 55.9599 204.011 55.8653C204.011 55.77 203.983 55.6758 203.956 55.5819C203.9 55.5184 203.86 55.4561 203.791 55.4238L203.777 54.9827C203.818 54.9505 203.846 54.8874 203.872 54.8552C203.9 54.7925 203.928 54.7294 203.928 54.6344C203.928 54.5717 203.9 54.4771 203.872 54.413C203.845 54.351 203.791 54.3191 203.75 54.2879L203.735 53.8145L203.598 50.406C203.598 50.3426 203.571 50.3114 203.53 50.3114C203.487 50.3429 203.461 50.3745 203.461 50.406L203.323 53.8145L203.31 54.2879C203.267 54.3191 203.227 54.3513 203.199 54.413C203.158 54.4771 203.144 54.5717 203.144 54.6344C203.144 54.729 203.158 54.7925 203.186 54.8552C203.214 54.8874 203.241 54.9505 203.282 54.9827L203.267 55.4238C203.214 55.4561 203.158 55.5184 203.117 55.5819C203.075 55.6758 203.048 55.77 203.048 55.8653C203.048 55.9596 203.075 56.0552 203.103 56.118C203.13 56.2133 203.185 56.2441 203.241 56.3082L203.214 56.7809C203.021 56.9067 202.772 57.0962 202.525 57.3177C202.278 57.5384 202.031 57.8222 201.922 58.1064C201.811 58.3909 201.784 58.6747 201.797 58.8951C201.811 59.1166 201.838 59.3051 201.879 59.4319C201.069 59.968 200.08 60.695 199.173 61.5472C198.251 62.4305 197.442 63.4088 197.042 64.4816C196.013 67.1642 196.809 69.8162 197.111 70.6368H196.947C196.782 70.6368 196.643 70.7949 196.643 71.0149C196.643 71.2045 196.782 71.3632 196.947 71.3632H197.111V72.278H195.229V76.0341H193.869V73.1932C194.034 73.0671 194.172 72.8779 194.172 72.6256C194.172 72.278 193.952 71.962 193.677 71.9V68.3954H193.938C194.115 68.3954 194.267 68.2066 194.267 68.018C194.267 67.7959 194.115 67.6393 193.938 67.6393H193.622C193.801 67.0072 194.033 65.8075 193.566 64.5773C193.346 64.0083 192.906 63.4718 192.412 62.9995C191.916 62.5254 191.381 62.146 190.928 61.8629C190.956 61.7998 190.983 61.6726 190.983 61.578C190.983 61.4214 190.983 61.2949 190.914 61.1369C190.845 60.9795 190.735 60.8215 190.585 60.6957C190.461 60.6011 190.324 60.4739 190.213 60.4116V60.1589C190.241 60.1267 190.268 60.0959 190.268 60.0643C190.296 60.0321 190.309 59.969 190.309 59.9382C190.309 59.8748 190.296 59.811 190.268 59.7809C190.241 59.7167 190.213 59.6859 190.186 59.6859V59.4333C190.2 59.4333 190.214 59.4018 190.228 59.3699C190.242 59.339 190.255 59.3061 190.255 59.2444C190.255 59.2125 190.242 59.181 190.228 59.1498C190.214 59.1179 190.186 59.0857 190.158 59.0549V58.8026L190.077 56.9722C190.077 56.941 190.062 56.9081 190.048 56.9081C190.022 56.9081 190.007 56.941 190.007 56.9722L189.938 58.8026L189.925 59.0549C189.897 59.0861 189.884 59.1183 189.857 59.1498C189.843 59.1814 189.828 59.2129 189.828 59.2444C189.828 59.3065 189.843 59.339 189.857 59.3699C189.87 59.4018 189.884 59.4333 189.911 59.4333V59.6859C189.87 59.6859 189.843 59.7171 189.829 59.7809C189.801 59.811 189.773 59.8748 189.773 59.9382C189.773 59.969 189.801 60.0321 189.814 60.0643C189.829 60.0962 189.857 60.127 189.884 60.1589L189.87 60.4116C189.773 60.4743 189.636 60.6011 189.499 60.6957C189.363 60.8215 189.238 60.9795 189.168 61.1369C189.115 61.2949 189.1 61.4529 189.115 61.578C189.115 61.6726 189.127 61.8001 189.142 61.8629C188.716 62.146 188.179 62.5254 187.686 62.9995C187.189 63.4715 186.75 64.0083 186.53 64.5773C186.063 65.8075 186.283 67.0072 186.475 67.6393H186.09C185.913 67.6393 185.761 67.7959 185.761 68.018C185.761 68.2066 185.913 68.3954 186.09 68.3954H186.366V71.9C186.09 71.962 185.871 72.278 185.871 72.6256C185.871 72.8779 185.995 73.0668 186.146 73.1932V76.0341H186.125V75.9121C184.948 66.5276 179.897 58.7458 167.286 52.9257C160.8 49.9306 157.584 45.8605 156.009 42.8723C157.519 42.1144 158.575 40.3869 158.575 38.3739C158.575 35.9752 157.077 33.9819 155.097 33.5529L155.027 31.3877C155.574 31.1143 155.957 30.4902 155.957 29.7618C155.957 28.9879 155.523 28.3364 154.92 28.0939L154.753 22.8993C156.669 23.372 158.712 23.2912 160.701 22.5209C163.689 21.362 165.964 18.9172 167.238 15.9034C166.174 16.9496 164.928 17.7806 163.52 18.326C157.63 20.6062 151.237 16.9686 149.248 10.2042C148.263 6.85185 148.538 3.36985 149.782 0.430176C146.393 3.76455 144.913 9.24087 146.43 14.3987C147.688 18.6844 150.719 21.7082 154.267 22.7735L153.992 28.0623C153.344 28.2737 152.867 28.9505 152.867 29.7618C152.867 30.4992 153.259 31.1313 153.817 31.3988L153.706 33.5172C151.627 33.8509 150.026 35.8944 150.026 38.3735C150.026 40.4743 151.177 42.2613 152.793 42.962C151.202 45.9419 147.984 49.9607 141.563 52.9253C129.813 58.3479 124.624 65.4734 123.019 74.0121V73.1929C123.169 73.0667 123.293 72.8775 123.293 72.6252C123.293 72.2777 123.074 71.9616 122.799 71.8996V68.3951H123.074C123.252 68.3951 123.403 68.2062 123.403 68.0177C123.403 67.7956 123.252 67.6389 123.074 67.6389H122.689C122.882 67.0069 123.101 65.8071 122.634 64.5769C122.414 64.0079 121.975 63.4715 121.479 62.9991C120.985 62.5251 120.449 62.1456 120.022 61.8625C120.037 61.7994 120.05 61.6723 120.05 61.5777C120.064 61.4526 120.05 61.2945 119.996 61.1365C119.927 60.9792 119.802 60.8212 119.665 60.6954C119.528 60.6008 119.391 60.4736 119.295 60.4112L119.281 60.1586C119.308 60.1264 119.336 60.0955 119.35 60.064C119.363 60.0318 119.391 59.9687 119.391 59.9378C119.391 59.8744 119.363 59.8107 119.336 59.7805C119.322 59.7164 119.295 59.6856 119.254 59.6856V59.4329C119.281 59.4329 119.295 59.4014 119.308 59.3695C119.322 59.3387 119.336 59.3057 119.336 59.2441C119.336 59.2122 119.322 59.1807 119.308 59.1495C119.281 59.1176 119.268 59.0854 119.24 59.0545L119.226 58.8022L119.157 56.9718C119.157 56.9407 119.143 56.9077 119.116 56.9077C119.102 56.9077 119.088 56.9407 119.088 56.9718L119.007 58.8022V59.0545C118.979 59.0857 118.951 59.1179 118.937 59.1495C118.923 59.181 118.91 59.2125 118.91 59.2441C118.91 59.3061 118.923 59.3387 118.937 59.3695C118.951 59.4014 118.965 59.4329 118.979 59.4329V59.6856C118.951 59.6856 118.923 59.7168 118.897 59.7805C118.869 59.8107 118.856 59.8744 118.856 59.9378C118.856 59.9687 118.869 60.0318 118.897 60.064C118.897 60.0959 118.923 60.1267 118.951 60.1586V60.4112C118.841 60.4739 118.703 60.6008 118.58 60.6954C118.429 60.8212 118.32 60.9792 118.25 61.1365C118.181 61.2945 118.181 61.421 118.181 61.5777C118.181 61.6723 118.208 61.7998 118.236 61.8625C117.783 62.1456 117.248 62.5251 116.753 62.9991C116.258 63.4711 115.819 64.0079 115.599 64.5769C115.131 65.8071 115.364 67.0069 115.543 67.6389H115.227C115.049 67.6389 114.898 67.7956 114.898 68.0177C114.898 68.2062 115.049 68.3951 115.227 68.3951H115.488V71.8996C115.214 71.9616 114.993 72.2777 114.993 72.6252C114.993 72.8775 115.131 73.0664 115.296 73.1929V76.0338H113.936V72.2777H112.053V71.3628H112.218C112.383 71.3628 112.521 71.2041 112.521 71.0145C112.521 70.7945 112.383 70.6365 112.218 70.6365H112.053C112.356 69.8159 113.152 67.1638 112.122 64.4813C111.723 63.4084 110.914 62.4301 109.992 61.5468C109.086 60.6947 108.095 59.9676 107.286 59.4315C107.327 59.3047 107.354 59.1162 107.368 58.8948C107.381 58.674 107.354 58.3905 107.243 58.106C107.134 57.8219 106.888 57.5377 106.64 57.3173C106.392 57.0959 106.144 56.9063 105.951 56.7806L105.924 56.3079C105.98 56.2438 106.035 56.2133 106.063 56.1176C106.09 56.0549 106.117 55.9596 106.117 55.865C106.117 55.7697 106.09 55.6754 106.049 55.5815C106.008 55.5181 105.951 55.4557 105.898 55.4235L105.884 54.9824C105.925 54.9501 105.952 54.8871 105.98 54.8548C106.008 54.7921 106.022 54.729 106.022 54.6341C106.022 54.5714 106.008 54.4768 105.966 54.4127C105.939 54.3506 105.898 54.3187 105.856 54.2876L105.843 53.8142L105.704 50.4057C105.704 50.3741 105.678 50.3422 105.636 50.3111C105.595 50.3111 105.568 50.3426 105.568 50.4057L105.431 53.8142L105.416 54.2876C105.375 54.3187 105.32 54.351 105.293 54.4127C105.265 54.4768 105.238 54.5714 105.238 54.6341C105.238 54.7287 105.265 54.7921 105.293 54.8548C105.32 54.8871 105.348 54.9501 105.389 54.9824L105.375 55.4235C105.306 55.4557 105.265 55.5181 105.21 55.5815C105.183 55.6754 105.155 55.7697 105.155 55.865C105.155 55.9593 105.183 56.0549 105.21 56.1176C105.238 56.2129 105.28 56.2438 105.334 56.3079L105.321 56.7806C105.128 56.9063 104.867 57.0959 104.634 57.3173C104.372 57.5381 104.139 57.8219 104.03 58.106C103.919 58.3905 103.892 58.6744 103.892 58.8948C103.919 59.1162 103.947 59.3047 103.987 59.4315C103.177 59.9676 102.174 60.6947 101.28 61.5468C100.359 62.4301 99.5485 63.4084 99.1372 64.4813C98.1209 67.1638 98.9036 69.8159 99.2193 70.6365H99.0539C98.8894 70.6365 98.738 70.7945 98.738 71.0145C98.738 71.2041 98.8894 71.3628 99.0539 71.3628H99.1239V72.2777H97.3369V76.0338H96.5532L96.539 66.6593H96.9663C97.2533 66.6593 97.4881 66.3754 97.4881 66.0601C97.4881 65.7139 97.253 65.4609 96.9663 65.4609H96.5264L96.4853 56.4659H96.6365C96.8831 56.4659 97.1027 56.2445 97.1027 55.9603C97.1027 55.6449 96.8831 55.4242 96.6365 55.4242H96.4712L96.4431 48.1334H96.6365C96.8562 48.1334 97.0484 47.9127 97.0484 47.66C97.0484 47.4389 96.9102 47.2494 96.7319 47.2186V45.7659L96.7467 45.7032C96.7319 45.6716 96.7319 45.6404 96.7319 45.6082V45.009H96.8972C97.0213 45.009 97.1027 44.9141 97.1027 44.7876C97.1027 44.6611 97.0213 44.5353 96.8972 44.5353H96.6628C96.7729 44.1562 96.9235 43.3994 96.6365 42.6422C96.4992 42.2946 96.2237 41.947 95.909 41.6636C95.6054 41.3482 95.2623 41.1268 94.9868 40.9376C95.001 40.906 95.0149 40.843 95.0149 40.7477C95.0149 40.6846 95.0149 40.591 94.9868 40.4951C94.9319 40.3689 94.8637 40.2746 94.7674 40.2112C94.6851 40.1485 94.6021 40.0858 94.5478 40.0535L94.5339 39.8644C94.5478 39.8644 94.574 39.8331 94.574 39.8009C94.5891 39.8009 94.6021 39.7694 94.6021 39.7375C94.6021 39.7063 94.5891 39.6741 94.574 39.6433C94.561 39.6117 94.5478 39.5802 94.5197 39.5802V39.4225C94.5339 39.4225 94.5478 39.3913 94.5478 39.3913C94.561 39.3591 94.574 39.3276 94.574 39.2957C94.574 39.2957 94.561 39.2645 94.5478 39.2323C94.5478 39.2014 94.5197 39.2014 94.5058 39.2014V39.0434L94.4648 37.8756C94.4648 37.8756 94.4515 37.844 94.4385 37.844C94.4237 37.844 94.4105 37.8756 94.4105 37.8756L94.3685 39.0434L94.3546 39.2014C94.3414 39.2014 94.3284 39.2014 94.3284 39.2323C94.3003 39.2645 94.3003 39.2957 94.3003 39.2957C94.3003 39.3276 94.3003 39.3591 94.3133 39.3913C94.3284 39.3913 94.3284 39.4225 94.3546 39.4225V39.5802C94.3284 39.5802 94.3003 39.6117 94.3003 39.6433C94.2732 39.6744 94.2732 39.7067 94.2732 39.7375C94.2732 39.7694 94.2732 39.8009 94.3003 39.8009C94.3003 39.8331 94.3133 39.8644 94.3284 39.8644V40.0535C94.2593 40.0858 94.176 40.1485 94.0939 40.2112C93.9976 40.275 93.9295 40.3689 93.8884 40.4951C93.8603 40.5907 93.8465 40.6846 93.8465 40.7477C93.8465 40.8426 93.8603 40.906 93.8742 40.9376C93.5996 41.1268 93.2559 41.3482 92.9533 41.6636C92.6515 41.947 92.376 42.2946 92.2378 42.6422C91.9369 43.3994 92.0875 44.1562 92.1968 44.5353H92.0048C91.8814 44.5353 91.7984 44.6611 91.7984 44.7876C91.7984 44.9141 91.8814 45.009 92.0048 45.009H92.1705V47.2186C91.9922 47.2494 91.854 47.4389 91.854 47.66C91.854 47.9127 92.0462 48.1334 92.2659 48.1334H92.4581L92.4321 55.4242H92.2659C92.019 55.4242 91.7987 55.6449 91.7987 55.9603C91.7987 56.2445 92.019 56.4659 92.2659 56.4659H92.4167L92.3757 65.4609H91.9367C91.6473 65.4609 91.4143 65.7139 91.4143 66.0601C91.4143 66.3754 91.6473 66.6593 91.9367 66.6593H92.3757L92.3476 82.9143H90.8651V81.9987H91.016C91.1949 81.9987 91.3322 81.8407 91.3322 81.6512C91.3322 81.4304 91.1949 81.2724 91.016 81.2724H90.8524C91.1669 80.4521 91.9641 77.8008 90.9336 75.1179C90.5347 74.0443 89.71 73.066 88.789 72.1831C87.8967 71.3295 86.9076 70.6049 86.0828 70.0678C86.1239 69.9417 86.1658 69.7518 86.1658 69.5636C86.1788 69.3103 86.152 69.0268 86.0557 68.743C85.9314 68.4588 85.6978 68.1747 85.4504 67.9543C85.2029 67.7332 84.9561 67.5433 84.7636 67.4172L84.7358 66.9448C84.791 66.8811 84.8321 66.8495 84.8601 66.7546C84.9015 66.6912 84.9292 66.5965 84.9292 66.5023C84.9292 66.407 84.9015 66.3124 84.8463 66.2178C84.8191 66.1551 84.7639 66.0913 84.7099 66.0598L84.6818 65.6179C84.7228 65.5864 84.7639 65.524 84.7781 65.4918C84.8191 65.4284 84.8191 65.366 84.8191 65.271C84.8191 65.2083 84.8052 65.1123 84.7639 65.0503C84.7361 64.9869 84.7099 64.9557 84.6537 64.9242L84.6408 64.4511L84.5034 61.0423C84.5034 61.0104 84.4754 60.9788 84.4334 60.947C84.4063 60.947 84.3791 60.9792 84.3791 61.0423L84.2418 64.4511L84.2138 64.9242C84.1727 64.9557 84.1323 64.9872 84.1045 65.0503C84.0765 65.1123 84.0493 65.2083 84.0493 65.271C84.0493 65.3657 84.0623 65.4284 84.1045 65.4918C84.1184 65.524 84.1604 65.5864 84.1866 65.6179L84.1727 66.0598C84.1045 66.0913 84.0626 66.1551 84.0219 66.2178C83.9811 66.3124 83.9528 66.407 83.9528 66.5023C83.9528 66.5962 83.966 66.6912 84.0219 66.7546C84.0493 66.8492 84.0765 66.8811 84.1323 66.9448L84.1184 67.4172C83.925 67.5433 83.6646 67.7332 83.4319 67.9543C83.1703 68.175 82.9364 68.4588 82.8257 68.743C82.7303 69.0268 82.7029 69.3103 82.7029 69.5636C82.7029 69.7518 82.7575 69.9417 82.7852 70.0678C81.9744 70.6053 80.972 71.3299 80.0782 72.1831C79.1569 73.066 78.347 74.0443 77.9481 75.1179C76.9176 77.8008 77.7003 80.4521 78.0292 81.2724H77.8518C77.6732 81.2724 77.5359 81.4304 77.5359 81.6512C77.5359 81.8407 77.6732 81.9987 77.8518 81.9987H77.92V82.9143C76.4502 79.9947 71.4808 79.5622 69.8157 83.5942L69.7937 79.111H69.9563C70.221 79.111 70.4376 78.8563 70.4376 78.5542C70.4376 78.2502 70.221 78 69.9563 78H69.7858L69.7472 70.2851H69.9566C70.1899 70.2851 70.3839 70.0654 70.3839 69.7944C70.3839 69.558 70.24 69.3619 70.0505 69.312V67.0023H70.2364C70.3537 67.0023 70.4542 66.8856 70.4542 66.7442C70.4542 66.6059 70.3537 66.4933 70.2364 66.4933H69.9841C70.1048 66.0792 70.2602 65.2856 69.9494 64.4778C69.8015 64.1032 69.5149 63.747 69.1805 63.434C68.8618 63.1312 68.5046 62.8723 68.2176 62.6848C68.2291 62.6318 68.2408 62.5691 68.2448 62.4929C68.2481 62.3993 68.2408 62.3005 68.2019 62.2038C68.163 62.0961 68.0779 61.998 67.984 61.9179C67.8992 61.8421 67.8057 61.7797 67.7396 61.7353L67.7357 61.561C67.7514 61.5434 67.7671 61.5208 67.7749 61.4983C67.79 61.4675 67.7982 61.437 67.7982 61.4054C67.7982 61.3687 67.79 61.3292 67.7749 61.3025C67.7592 61.2755 67.7435 61.2575 67.7203 61.2398L67.7125 61.0883C67.7276 61.0741 67.7396 61.0568 67.7478 61.0339C67.7592 61.017 67.7671 60.9896 67.7671 60.9632C67.7671 60.9366 67.7592 60.9054 67.7435 60.8835C67.7357 60.8652 67.7203 60.8475 67.7046 60.8291L67.6971 60.6684L67.6506 59.4471C67.6506 59.4336 67.6431 59.4208 67.6271 59.4208C67.6111 59.4208 67.6035 59.4295 67.5999 59.4471L67.5534 60.6684L67.5492 60.8291C67.5302 60.8479 67.5148 60.8652 67.5064 60.8835C67.4919 60.9054 67.4874 60.9366 67.4874 60.9632C67.4874 60.9896 67.4919 61.017 67.503 61.0339C67.5106 61.0568 67.5263 61.0741 67.5335 61.0883L67.5302 61.2398C67.5106 61.2575 67.4873 61.2755 67.4795 61.3025C67.4605 61.3292 67.4523 61.3683 67.4523 61.4054C67.4523 61.437 67.4602 61.4675 67.4759 61.4983C67.4834 61.5205 67.503 61.5434 67.5187 61.561L67.5106 61.7353C67.4409 61.7797 67.3473 61.8424 67.2662 61.9179C67.1726 61.998 67.0875 62.0964 67.0525 62.2038C67.0097 62.3005 67.0018 62.3993 67.006 62.4929C67.006 62.5691 67.0211 62.6315 67.0368 62.6848C66.7456 62.8723 66.3886 63.1312 66.0658 63.434C65.7393 63.7466 65.4447 64.1032 65.3011 64.4778C64.9942 65.2856 65.1421 66.0792 65.2661 66.4933H65.0564C64.9321 66.4933 64.8316 66.6056 64.8316 66.7442C64.8316 66.8856 64.9321 67.0023 65.0564 67.0023H65.2269V69.312C65.0404 69.3657 64.9007 69.5622 64.9007 69.7944C64.9007 70.0654 65.0992 70.2851 65.3355 70.2851H65.5371L65.4991 78H65.3355C65.0676 78 64.8461 78.2502 64.8461 78.5542C64.8461 78.8563 65.0673 79.111 65.3355 79.111H65.4991L65.4598 85.9756C63.5425 81.4179 59.6136 78.1924 54.9943 77.8091V77.2706C54.9943 77.1843 54.9647 77.0997 54.9107 77.0377C54.8561 76.9757 54.7849 76.9417 54.7079 76.9417H54.4725L54.2879 71.4214C55.3313 70.9217 56.1407 69.8498 56.3504 68.4782C56.5987 66.8502 55.9349 65.2832 54.7861 64.4612C55.277 65.2776 55.4973 66.3086 55.3365 67.3666C55.0118 69.5026 53.2344 70.9324 51.3768 70.5585C50.9311 70.4691 50.524 70.2847 50.161 70.0273C50.6656 70.8659 51.4483 71.4793 52.3916 71.6695C52.9764 71.788 53.5462 71.7097 54.0715 71.5039L53.8829 76.9414H53.653C53.4912 76.9414 53.3582 77.0938 53.3582 77.2806V77.7973C48.3767 78.1182 44.1736 81.7437 42.3775 86.8024C42.1267 86.4729 41.8322 86.1589 41.5214 85.8595C40.9182 85.2842 40.2501 84.7929 39.6928 84.4307C39.7202 84.3455 39.7486 84.2176 39.7486 84.0901C39.7573 83.9192 39.7392 83.7269 39.6741 83.5356C39.5902 83.3433 39.4323 83.1513 39.2655 83.0023C39.0983 82.8523 38.9314 82.7247 38.8011 82.6391L38.7824 82.3196C38.8195 82.2774 38.8472 82.2555 38.8666 82.1914C38.8943 82.1495 38.913 82.0843 38.913 82.0213C38.913 81.9571 38.8943 81.8927 38.8566 81.8282C38.8388 81.7863 38.8011 81.7433 38.7646 81.7218L38.7455 81.4231C38.7733 81.4023 38.8011 81.3597 38.811 81.3379C38.8388 81.2949 38.8388 81.253 38.8388 81.1885C38.8388 81.1459 38.8288 81.0815 38.8011 81.0402C38.7824 80.9965 38.7646 80.9758 38.7265 80.9536L38.7178 80.6341L38.6251 78.331C38.6251 78.3099 38.6061 78.2891 38.5778 78.2669C38.5597 78.2669 38.5413 78.2887 38.5413 78.331L38.4483 80.6341L38.4293 80.9536C38.4018 80.9758 38.3747 80.9965 38.3557 81.0402C38.3367 81.0815 38.3183 81.1459 38.3183 81.1885C38.3183 81.253 38.3273 81.2949 38.3557 81.3379C38.365 81.3597 38.3934 81.4027 38.4112 81.4231L38.4018 81.7218C38.3557 81.7433 38.3273 81.7863 38.2999 81.8282C38.2724 81.8927 38.2534 81.9571 38.2534 82.0213C38.2534 82.0847 38.2624 82.1495 38.2999 82.1914C38.3183 82.2559 38.3367 82.2774 38.3747 82.3196L38.365 82.6391C38.2344 82.7247 38.0581 82.8523 37.9012 83.0023C37.7241 83.1513 37.5663 83.3433 37.4914 83.5356C37.4269 83.7269 37.4085 83.9189 37.4085 84.0901C37.4085 84.2176 37.4453 84.3455 37.4643 84.4307C36.9166 84.7929 36.2392 85.2842 35.635 85.8595C35.0122 86.4573 34.4648 87.1178 34.1953 87.8434C34.0236 88.2901 33.9274 88.7351 33.8815 89.1616C32.0743 88.3546 30.5456 87.3319 29.3223 86.1367C29.373 86.0224 29.4098 85.8994 29.4098 85.7614C29.4098 85.4222 29.2296 85.1307 28.9725 85.0018L28.7897 81.7218H28.5754L28.3916 85.0018C28.1345 85.1307 27.9571 85.4222 27.9571 85.7614C27.9571 85.8994 27.9912 86.0224 28.0437 86.1367C26.7078 87.4349 24.9926 88.5521 22.9802 89.3824C19.8878 90.6535 17.8244 92.9299 17.8244 95.53C17.8244 96.2743 17.9949 96.9955 18.3081 97.6695H17.0978V91.6827H17.1696C17.3751 91.6827 17.5423 91.4928 17.5423 91.2558V91.0135C17.5423 90.7796 17.3751 90.5873 17.1696 90.5873H16.6822C16.7025 90.4286 16.7163 90.272 16.7163 90.1032C16.7163 88.9621 16.1898 87.9588 15.4007 87.4002C14.91 87.054 14.4918 86.6042 14.1623 86.0743C14.225 86.0071 14.2619 85.9111 14.2619 85.8065C14.2619 85.6578 14.1849 85.5268 14.0711 85.4717L13.9897 84.0277H13.8961L13.8159 85.4717C13.7021 85.5268 13.6242 85.6578 13.6242 85.8065C13.6242 85.9115 13.6626 86.0071 13.7247 86.0743C13.3916 86.6021 12.9724 87.0547 12.4878 87.4002C11.6978 87.9585 11.1703 88.9621 11.1703 90.1032C11.1703 90.272 11.1836 90.4286 11.2072 90.5873H10.7026C10.4977 90.5873 10.3324 90.78 10.3324 91.0135V91.2558C10.3324 91.4932 10.4977 91.6827 10.7026 91.6827H10.7874V97.9613C10.3692 96.3 9.27923 94.9693 7.87032 94.3815C7.87213 94.3552 7.87726 94.3292 7.87726 94.3022C7.87726 93.5031 7.43368 92.8315 6.81448 92.5733L6.58816 91.7853C6.63252 91.7132 6.6636 91.6307 6.6636 91.5375C6.6636 91.3563 6.56643 91.2035 6.43275 91.1321L6.29183 88.645C6.29183 88.6335 6.28006 88.6252 6.26829 88.6252C6.26045 88.6252 6.24989 88.6332 6.24989 88.645L6.10897 91.1321C5.97619 91.2035 5.87993 91.3559 5.87993 91.5375C5.87993 91.6307 5.9095 91.7125 5.95145 91.7832L5.72664 92.5733C5.10834 92.8315 4.66566 93.5052 4.66566 94.3022C4.66566 94.3292 4.67109 94.3552 4.67109 94.3815C2.86296 95.136 1.56239 97.1091 1.56239 99.4489C1.56239 100.01 1.65593 100.54 1.79413 101.05H0.167662V101.867H0.000488281L0.000488281 132.441H309V101.867V101.05L307.374 101.05ZM296.956 94.4134C296.956 93.5693 297.173 92.8606 297.469 92.6478C297.762 92.8602 297.978 93.5693 297.978 94.4134V97.7267H296.956V94.4134ZM293.932 94.061C293.932 93.1298 294.478 92.346 295.225 92.1058C295.968 92.3456 296.516 93.1298 296.516 94.061V97.7263H294.557V97.6698H293.932V94.061ZM292.478 94.4134C292.478 93.5693 292.694 92.8606 292.987 92.6478C293.284 92.8602 293.499 93.5693 293.499 94.4134V97.6698H292.477L292.478 94.4134ZM240.788 67.9834C240.613 67.412 241.433 67.44 241.526 67.0027C241.623 67.44 242.442 67.412 242.264 67.9834C242.24 68.0728 242.213 68.1435 242.276 68.2329C242.333 68.3223 242.326 68.3937 242.326 68.3937V69.2988H240.733V68.3937C240.733 68.3937 240.718 68.3223 240.78 68.2329C240.842 68.1435 240.819 68.0728 240.788 67.9834ZM213.864 46.9562V45.323C213.864 44.6881 214.236 44.1552 214.744 43.9916C215.25 44.1552 215.624 44.6885 215.624 45.323V46.9943H213.863L213.864 46.9562ZM191.684 67.9013C191.684 67.0564 191.901 66.3488 192.197 66.1346C192.49 66.3484 192.706 67.0564 192.706 67.9013V70.5034H191.684V67.9013ZM188.713 70.4441V68.0447C188.713 67.1136 189.26 66.3297 190.006 66.0896C190.749 66.3294 191.297 67.1136 191.297 68.0447V70.4999H188.712L188.713 70.4441ZM187.205 67.9013C187.205 67.0564 187.421 66.3488 187.715 66.1346C188.011 66.3484 188.227 67.0564 188.227 67.9013V70.5114H187.205L187.205 67.9013ZM120.941 67.9013C120.941 67.0564 121.156 66.3488 121.452 66.1346C121.746 66.3484 121.962 67.0564 121.962 67.9013V70.5114H120.941V67.9013ZM117.87 68.0447C117.87 67.1136 118.418 66.3297 119.161 66.0896C119.908 66.3294 120.455 67.1136 120.455 68.0447V70.4441L120.455 70.4999H117.87L117.87 68.0447ZM116.462 67.9013C116.462 67.0564 116.677 66.3488 116.97 66.1346C117.267 66.3484 117.484 67.0564 117.484 67.9013V70.5034H116.462V67.9013ZM93.5444 45.323C93.5444 44.6881 93.9177 44.1552 94.4234 43.9916C94.9319 44.1552 95.3043 44.6885 95.3043 45.323V46.9562L95.3049 46.994H93.5444V45.323ZM66.9037 67.9834C66.7254 67.412 67.545 67.44 67.6418 67.0027C67.7348 67.44 68.5541 67.412 68.3799 67.9834C68.3486 68.0728 68.325 68.1435 68.3872 68.2329C68.4493 68.3223 68.4343 68.3937 68.4343 68.3937V69.2988H66.8416V68.3937C66.8416 68.3937 66.8337 68.3223 66.892 68.2329C66.9544 68.1435 66.9276 68.0728 66.9037 67.9834ZM15.6683 94.4134C15.6683 93.5693 15.8835 92.8606 16.1801 92.6478C16.474 92.8602 16.6898 93.5693 16.6898 94.4134V97.6698H15.6683V94.4134ZM12.6517 94.061C12.6517 93.1298 13.2 92.346 13.9426 92.1058C14.6897 92.3456 15.2362 93.1298 15.2362 94.061V97.6698H14.6107V97.7263H12.6514L12.6517 94.061ZM11.19 94.4134C11.19 93.5693 11.4051 92.8606 11.6981 92.6478C11.9947 92.8602 12.2117 93.5693 12.2117 94.4134V97.7267H11.19V94.4134Z" fill="#001732" fill-opacity="0.06"/>
</svg>
